<?xml version="1.0" encoding="utf-8"?>
<!-- Generator: Adobe Illustrator 16.0.0, SVG Export Plug-In . SVG Version: 6.00 Build 0)  -->
<!DOCTYPE svg PUBLIC "-//W3C//DTD SVG 1.1//EN" "http://www.w3.org/Graphics/SVG/1.1/DTD/svg11.dtd">
<svg version="1.1" id="Layer_1" xmlns="http://www.w3.org/2000/svg" xmlns:xlink="http://www.w3.org/1999/xlink" x="0px" y="0px"
	 width="16px" height="17px" viewBox="0 0 16 17" enable-background="new 0 0 16 17" xml:space="preserve">
<title>7B74AE53-DF2E-4D14-A854-B78571BEB245</title>
<desc>Created with sketchtool.</desc>
<g>
	<path fill="#BBBBBB" d="M3.301,13.846h0.197c0.31,0,0.563-0.253,0.563-0.563V9.343c0-0.309-0.253-0.562-0.563-0.562H2.937
		C2.937,5.982,5.2,3.717,8,3.717s5.064,2.265,5.064,5.064h-0.562c-0.311,0-0.563,0.253-0.563,0.562v3.939
		c0,0.311,0.253,0.563,0.563,0.563h0.986c1.32,0,2.39-1.07,2.39-2.391v-0.282c0-1.267-0.999-2.308-2.249-2.378l0,0
		c0-3.123-2.52-5.641-5.629-5.641c-3.108,0-5.627,2.518-5.627,5.627v0.014c-1.252,0.07-2.25,1.111-2.25,2.378v0.282
		c0,1.32,1.069,2.391,2.391,2.391H2.64 M3.498,9.343v3.939H2.513c-1.012,0-1.828-0.815-1.828-1.827v-0.282
		c0-1.014,0.816-1.83,1.828-1.83H3.498z M15.315,11.455c0,1.012-0.816,1.827-1.827,1.827h-0.986V9.343h0.986
		c1.011,0,1.827,0.816,1.827,1.83V11.455z"/>
</g>
</svg>
