<?xml version="1.0" encoding="utf-8"?>
<!-- Generator: Adobe Illustrator 24.0.2, SVG Export Plug-In . SVG Version: 6.00 Build 0)  -->
<svg version="1.1" id="Layer_1" xmlns="http://www.w3.org/2000/svg" xmlns:xlink="http://www.w3.org/1999/xlink" x="0px" y="0px"
	 viewBox="0 0 512 512" style="enable-background:new 0 0 512 512;" xml:space="preserve">
<style type="text/css">
	.st0{fill:#BBBBBB;}
</style>
<g transform="translate(0.000000,512.000000) scale(0.100000,-0.100000)">
	<path class="st0" d="M2511,5106c-28-15-50-52-51-82c0-12,11-47,25-77c39-84,37-178-5-263c-52-106-120-147-277-168
		c-59-8-133-24-163-34c-308-107-500-376-500-697c0-135,25-228,101-380c51-102,61-131,66-190c19-234-151-431-382-443
		c-65-3-91,0-138,18c-151,57-272,226-292,410c-9,77-23,109-58,126c-41,22-90,11-122-28c-45-54-163-306-209-448
		c-79-242-108-426-108-685c0-349,71-655,222-960C915,611,1477,176,2120,47c487-99,955-39,1398,179c212,105,256,150,220,229
		c-13,28-55,55-87,55c-10,0-88-36-173-80c-489-253-1024-298-1533-129C1093,584,543,1400,601,2293c14,220,59,421,140,624l13,32l40-67
		c21-37,73-101,115-142c121-120,238-170,396-170c330,0,605,275,605,605c0,101-25,192-89,320c-33,66-65,145-71,176
		c-17,78-8,220,18,294c65,177,231,316,413,344c160,25,196,34,254,61c162,78,274,250,276,427c1,34,4,63,7,63c18,0,110-71,151-117
		c120-134,167-318,126-491c-17-70-37-114-101-217c-23-38-55-106-70-150c-24-69-28-96-28-195c-1-127,13-191,66-295
		c77-153,205-263,374-322c69-24,94-27,199-27c133-1,205,17,320,77c86,45,201,164,249,257l39,74l39-44c110-126,250-370,321-560
		c207-555,144-1209-165-1708c-50-80-55-127-19-166c54-57,124-42,175,38c154,241,268,555,311,857c21,147,21,437,1,579
		c-67,472-266,885-581,1208c-96,98-102,102-143,102c-32,0-49-6-67-24c-25-25-26-29-43-133c-41-249-298-412-547-348
		c-79,21-156,68-215,133c-62,66-96,138-112,229c-21,124,5,218,102,372c98,157,132,353,94,539c-31,151-94,264-214,384
		c-72,72-103,94-181,132c-87,42-197,76-244,75C2544,5119,2524,5113,2511,5106z"/>
	<path class="st0" d="M1974,2399c-130-38-236-199-220-335c26-225,266-356,466-254c49,25,115,95,142,149c18,37,23,63,23,136
		c0,78-4,97-27,140c-58,110-164,175-283,174C2037,2409,1991,2404,1974,2399z M2138,2194c53-37,68-121,30-169c-66-85-194-55-214,50
		c-8,42,19,101,55,120C2044,2214,2110,2214,2138,2194z"/>
	<path class="st0" d="M2773,2252c-34-27-586-1168-587-1214c-1-73,81-119,145-82c27,17,69,96,315,603c202,415,284,594,284,619
		c0,49-45,92-97,92C2812,2270,2785,2262,2773,2252z"/>
	<path class="st0" d="M2969,1427c-241-68-320-358-145-533c156-156,411-114,508,83c64,131,38,275-68,373c-25,23-65,50-89,61
		C3118,1436,3027,1443,2969,1427z M3117,1215c33-22,56-80,48-121c-8-46-65-94-111-94c-73,0-124,51-124,124c0,37,37,91,74,107
		C3032,1243,3086,1235,3117,1215z"/>
	<path class="st0" d="M3963,780c-31-13-57-57-57-98c0-47,49-92,100-92c50,0,94,45,94,95c0,47-13,71-50,90
		C4018,792,3996,793,3963,780z"/>
</g>
</svg>
