<?xml version="1.0" encoding="utf-8"?>
<!-- Generator: Adobe Illustrator 24.0.2, SVG Export Plug-In . SVG Version: 6.00 Build 0)  -->
<svg version="1.1" id="Layer_1" xmlns="http://www.w3.org/2000/svg" xmlns:xlink="http://www.w3.org/1999/xlink" x="0px" y="0px"
	 viewBox="0 0 324 354" style="enable-background:new 0 0 324 354;" xml:space="preserve">
<style type="text/css">
	.st0{fill:#BBBBBB;}
	.st1{fill:none;stroke:#BBBBBB;stroke-width:10;stroke-miterlimit:10;}
</style>
<title>7B74AE53-DF2E-4D14-A854-B78571BEB245</title>
<desc>Created with sketchtool.</desc>
<g>
	<title>7B74AE53-DF2E-4D14-A854-B78571BEB245</title>
	<desc>Created with sketchtool.</desc>
	<g>
		<path class="st0" d="M241.8,226.2c0,1,0,2.1,0,3.1c0,0.2-0.1,0.4-0.1,0.6c-0.1,4.8-0.5,9.5-1.1,14.3c-0.5,4.1-1.3,8.2-2.6,12.1
			c-3.4,10.3-9.4,18.7-18.1,25.3c-5.3,4-11.1,6.9-17.2,9.2c-7.8,2.8-15.9,4.5-24.2,5.4c-4.8,0.5-9.5,0.8-14.3,0.9
			c-7.9,0.1-15.7-0.2-23.6-1.3c-5.9-0.8-11.8-2.1-17.5-3.9c-7.9-2.5-15.3-6-21.9-11.1c-7.8-6.1-13.5-13.8-17-23
			c-3-7.8-4.2-15.9-4.3-24.1c-0.1-6.1,0-12.2,0-18.3c0-0.2,0-0.4,0-0.5c20,0,40,0,60.1,0c0,0.3,0,0.5,0,0.8c0,7.4,0,14.8,0.1,22.2
			c0,2.8,0.7,5.5,1.9,8c2.3,4.8,6.2,7.9,11.2,9.6c5.7,1.9,11.6,1.9,17.4,0.5c6.8-1.7,11.2-5.9,13.3-12.6c1-3.2,1.4-6.4,1.4-9.7
			c0-2.2-0.2-4.5-0.9-6.6c-0.9-3.2-2.6-5.9-4.7-8.5c-3-3.8-6.7-6.9-10.6-9.7c-5.8-4.3-12.1-7.9-18.4-11.4
			c-7.4-4.1-14.8-8.2-22.2-12.3c-7.4-4.2-14.7-8.8-21.4-14c-5.2-4-10.1-8.5-14.2-13.6c-5-6.3-8.6-13.2-10.1-21.2
			c-0.9-4.6-1.4-9.1-1.5-13.8c-0.1-4.4,0.2-8.7,0.9-13c0.5-3.3,1-6.6,2-9.9c1.7-5.8,4.2-11.3,7.7-16.3c5.8-8.1,13.6-13.8,22.6-17.9
			c7.4-3.3,15.2-5.4,23.2-6.7c5.7-0.9,11.5-1.4,17.3-1.6c5.7-0.2,11.5-0.2,17.2,0.3c4.2,0.3,8.3,0.9,12.5,1.4
			c5.1,0.7,10,1.9,14.9,3.6c6.2,2.1,12.1,4.8,17.3,8.7c7.4,5.4,12.7,12.5,15.9,21.1c2.3,6.3,3.3,12.9,3.5,19.6
			c0.1,5.6,0.1,11.3,0.1,16.9c0,0.2,0,0.4,0,0.6c-18.6,0-37.1,0-55.7,0c0-0.3,0-0.5,0-0.7c-0.1-5.3,0-10.5-0.2-15.8
			c-0.1-3-1-5.8-2.5-8.4c-3.3-5.6-8.4-8.3-14.7-9.1c-3.1-0.4-6.1-0.2-9.1,0.3c-4.1,0.8-7.8,2.5-10.6,5.7c-2.5,2.8-3.8,6.2-4.4,9.8
			c-0.5,2.8-0.5,5.6-0.1,8.4c0.3,2.5,1.1,4.8,2.3,6.9c1.7,2.9,4,5.2,6.6,7.4c4.4,3.7,9.2,6.8,14.2,9.6c5.8,3.3,11.7,6.4,17.6,9.6
			c7.8,4.2,15.7,8.3,23.2,13c7.1,4.4,14,9.2,20.1,14.9c4.8,4.5,9,9.4,12.2,15.1c2.4,4.2,4.1,8.7,5,13.4c1,5.1,1.4,10.3,1.5,15.5
			C241.7,225.3,241.8,225.8,241.8,226.2z"/>
	</g>
	<path class="st1" d="M247.3,321H74.4C40.5,321,13,293.5,13,259.6V86.7c0-33.9,27.5-61.4,61.4-61.4h172.9
		c33.9,0,61.4,27.5,61.4,61.4v172.9C308.7,293.5,281.2,321,247.3,321z"/>
</g>
</svg>
