<?xml version="1.0" encoding="utf-8"?>
<!-- Generator: Adobe Illustrator 24.0.2, SVG Export Plug-In . SVG Version: 6.00 Build 0)  -->
<svg version="1.1" id="Layer_1" xmlns="http://www.w3.org/2000/svg" xmlns:xlink="http://www.w3.org/1999/xlink" x="0px" y="0px"
	 viewBox="0 0 512 512" style="enable-background:new 0 0 512 512;" xml:space="preserve">
<style type="text/css">
	.st0{fill:#FFFFFF;}
</style>
<g transform="translate(0.000000,512.000000) scale(0.100000,-0.100000)">
	<path class="st0" d="M525,5105c-128-28-239-89-329-179c-75-75-125-156-163-261l-28-80v-665v-665l28-80c73-206,217-349,426-423
		l76-27h665h665l80,28c206,73,349,217,423,426l27,76v665v665l-27,76c-74,209-217,353-423,426l-80,28l-640,2
		C721,5118,572,5116,525,5105z M1882,4767c72-35,130-93,165-165l28-57v-625v-625l-27-55c-35-71-97-133-167-168l-56-27h-625H575
		l-55,27c-71,35-133,97-168,167l-27,56l-3,595c-2,415,0,611,8,647c23,105,116,207,223,245c48,16,97,17,662,15l610-2L1882,4767z"/>
	<path class="st0" d="M3245,5105c-128-28-239-89-329-179c-75-75-125-156-163-261l-28-80v-665v-665l28-80c73-206,217-349,426-423
		l76-27h665h665l80,28c206,73,349,217,423,426l27,76v665v665l-27,76c-74,209-217,353-423,426l-80,28l-640,2
		C3441,5118,3292,5116,3245,5105z M4602,4767c72-35,130-93,165-165l28-57v-625v-625l-27-55c-35-71-97-133-167-168l-56-27h-625h-625
		l-55,27c-71,35-133,97-168,167l-27,56l-3,595c-2,415,0,611,8,647c23,105,116,207,223,245c48,16,97,17,662,15l610-2L4602,4767z"/>
	<path class="st0" d="M525,2385c-128-28-239-89-329-179c-75-75-125-156-163-261l-28-80v-665V535l28-80c73-206,217-349,426-423l76-27
		h665h665l80,28c206,73,349,217,423,426l27,76v665v665l-27,76c-74,209-217,353-423,426l-80,28l-640,2C721,2398,572,2396,525,2385z
		 M1882,2047c72-35,130-93,165-165l28-57v-625V575l-27-55c-35-71-97-133-167-168l-56-27h-625H575l-55,27c-71,35-133,97-168,167
		l-27,56l-3,595c-2,415,0,611,8,647c23,105,116,207,223,245c48,16,97,17,662,15l610-2L1882,2047z"/>
	<path class="st0" d="M3800,2395c-8-2-49-9-90-15c-358-58-694-309-862-645c-89-177-122-320-123-530c0-163,11-239,56-377
		c97-300,319-557,607-702c85-43,216-87,317-107c103-21,349-18,455,5c423,91,768,399,899,804c44,136,56,215,56,372c0,83-6,175-14,215
		c-95,479-451,849-921,956C4102,2389,3842,2406,3800,2395z M4075,2065c174-31,337-117,465-245c344-343,344-898,1-1241
		s-894-343-1240,0s-346,899,0,1242C3509,2028,3787,2115,4075,2065z"/>
</g>
</svg>
